HIERARCHY
ROOT Hips
{
	OFFSET -3.958830 18.904000 13.208200
	CHANNELS 6 Xposition Yposition Zposition Zrotation Yrotation Xrotation 
	JOINT LHipJoint
	{
		OFFSET 0.000000 0.000000 0.000000
		CHANNELS 3 Zrotation Yrotation Xrotation
		JOINT LeftUpLeg
		{
			OFFSET 1.800000 -1.400000 0.085000
			CHANNELS 3 Zrotation Yrotation Xrotation
			JOINT LeftLeg
			{
				OFFSET 2.215000 -6.000000 0.000000
				CHANNELS 3 Zrotation Yrotation Xrotation
				JOINT LeftFoot
				{
					OFFSET 2.500000 -6.900000 0.000000
					CHANNELS 3 Zrotation Yrotation Xrotation
					JOINT LeftToeBase
					{
						OFFSET 0.200000 -0.500000 1.950000
						CHANNELS 3 Zrotation Yrotation Xrotation
						End Site
						{
							OFFSET 0.000000 0.000000 0.000000
						}
					}
				}
			}
		}
	}
	JOINT RHipJoint
	{
		OFFSET 0.000000 0.000000 0.000000
		CHANNELS 3 Zrotation Yrotation Xrotation
		JOINT RightUpLeg
		{
			OFFSET -1.800000 -1.400000 0.085000
			CHANNELS 3 Zrotation Yrotation Xrotation
			JOINT RightLeg
			{
				OFFSET -2.215000 -6.000000 0.000000
				CHANNELS 3 Zrotation Yrotation Xrotation
				JOINT RightFoot
				{
					OFFSET -2.500000 -6.900000 0.000000
					CHANNELS 3 Zrotation Yrotation Xrotation
					JOINT RightToeBase
					{
						OFFSET -0.200000 -0.500000 1.950000
						CHANNELS 3 Zrotation Yrotation Xrotation
						End Site
						{
							OFFSET 0.000000 0.000000 0.000000
						}
					}
				}
			}
		}
	}
	JOINT LowerBack
	{
		OFFSET 0.000000 0.000000 0.000000
		CHANNELS 3 Zrotation Yrotation Xrotation
		JOINT Spine
		{
			OFFSET -0.087000 1.940000 -0.288900
			CHANNELS 3 Zrotation Yrotation Xrotation
			JOINT Spine1
			{
				OFFSET 0.000000 1.950000 0.060000
				CHANNELS 3 Zrotation Yrotation Xrotation
				JOINT Neck
				{
					OFFSET 0.000000 0.000000 0.000000
					CHANNELS 3 Zrotation Yrotation Xrotation
					JOINT Neck1
					{
						OFFSET 0.000000 1.600000 0.340000
						CHANNELS 3 Zrotation Yrotation Xrotation
						JOINT Head
						{
							OFFSET 0.000000 1.667000 -0.240000
							CHANNELS 3 Zrotation Yrotation Xrotation
							End Site
							{
								OFFSET 0.000000 0.000000 0.000000
							}
						}
					}
				}
				JOINT LeftShoulder
				{
					OFFSET 0.000000 0.000000 0.000000
					CHANNELS 3 Zrotation Yrotation Xrotation
					JOINT LeftArm
					{
						OFFSET 2.700000 1.550000 -0.730000
						CHANNELS 3 Zrotation Yrotation Xrotation
						JOINT LeftForeArm
						{
							OFFSET 5.450000 0.000000 0.000000
							CHANNELS 3 Zrotation Yrotation Xrotation
							JOINT LeftHand
							{
								OFFSET 3.450000 0.000000 0.000000
								CHANNELS 3 Zrotation Yrotation Xrotation
								JOINT LeftHandIndex1
								{
									OFFSET 0.750000 0.000000 0.000000
									CHANNELS 3 Zrotation Yrotation Xrotation
									End Site
									{
										OFFSET 0.000000 0.000000 0.000000
									}
								}
							}
						}
					}
				}
				JOINT RightShoulder
				{
					OFFSET 0.000000 0.000000 0.000000
					CHANNELS 3 Zrotation Yrotation Xrotation
					JOINT RightArm
					{
						OFFSET -2.700000 1.550000 -0.730000
						CHANNELS 3 Zrotation Yrotation Xrotation
						JOINT RightForeArm
						{
							OFFSET -5.450000 0.000000 0.000000
							CHANNELS 3 Zrotation Yrotation Xrotation
							JOINT RightHand
							{
								OFFSET -3.450000 0.000000 0.000000
								CHANNELS 3 Zrotation Yrotation Xrotation
								JOINT RightHandIndex1
								{
									OFFSET -0.750000 0.000000 0.000000
									CHANNELS 3 Zrotation Yrotation Xrotation
									End Site
									{
										OFFSET 0.000000 0.000000 0.000000
									}
								}
							}
						}
					}
				}
			}
		}
	}
}
MOTION
Frames: 4
Frame Time: 0.016667
-2.364860 17.162520 -0.973420 6.694618 -11.095944 -4.089486 -15.537943 9.997253 7.185977 51.831567 -2.838535 -10.381754 -69.645567 24.081754 12.004811 1.579826 11.876404 0.413180 0.506850 0.036420 0.787410 18.323554 -8.687073 2.328644 -24.836525 -2.080862 -5.678464 9.546425 -4.475198 -2.341901 -0.739934 -4.103974 2.907620 -0.044700 -0.223910 0.034900 -3.480100 -1.609440 -10.163608 -8.018904 -2.655972 22.247832 -7.534126 -2.870786 -10.933262 4.760562 -5.777626 -22.365233 -29.872406 26.551111 50.234985 4.897250 18.262990 -12.427620 -20.098296 -18.014805 6.596667 -18.306770 -8.122117 -0.635541 -1.342426 -27.090232 0.277845 -3.262623 2.846358 1.007770 -0.331280 0.295400 -0.040710 14.837137 20.483904 14.791106 -1.480314 -12.798835 -0.682796 -6.847934 0.926707 0.571288 2.698664 -0.706736 -0.270000 0.155390 -0.114990 -0.483020 
-2.434850 17.182890 -0.962990 7.856231 -11.454811 -3.829872 -15.570652 9.831752 7.316647 52.519820 -2.330908 -10.203134 -75.330390 24.055731 9.796287 1.655082 11.804182 0.491759 0.466680 -0.004110 0.770850 18.305901 -8.654586 2.350936 -25.454295 -1.937241 -6.128064 9.531425 -4.468522 -2.432838 -0.719291 -4.116498 2.922756 -0.065140 -0.181160 0.009120 -3.425072 -1.388606 -10.240645 -10.328386 -1.708348 21.372741 -6.014988 -2.586937 -11.440931 4.755384 -5.517167 -22.528208 -29.127846 27.009289 51.333275 5.373100 18.944690 -10.772320 -20.427617 -18.196282 6.922465 -18.972384 -7.128317 -0.840845 -3.571264 -29.383335 0.839542 -3.257254 2.842999 1.000910 -0.307250 0.274090 -0.035470 15.385275 20.613195 14.783480 -2.420923 -13.505120 -0.522889 -6.001172 1.847269 0.523495 2.675604 -0.677397 -0.302540 0.190430 -0.108760 -0.481530 
-2.544190 17.235130 -0.943110 9.525439 -12.318902 -2.981092 -15.578372 9.475352 7.553825 53.442557 -1.275976 -9.805809 -85.087085 23.235815 5.689154 1.736207 11.494083 0.607199 0.463260 0.010080 0.763640 18.326796 -8.669578 2.368463 -25.865690 -1.614088 -7.342980 8.807791 -4.304833 -2.753117 -0.706773 -4.032160 2.943340 -0.077660 -0.212300 0.007270 -3.478456 -0.768109 -10.323041 -13.282899 -0.482408 19.844687 -4.063870 -2.484480 -13.618824 4.606604 -5.399371 -22.114548 -29.005288 27.845311 53.278394 5.485950 19.845060 -10.630620 -20.723492 -17.340140 7.035924 -20.816753 -6.362602 -0.365434 -7.853926 -31.293176 2.040845 -3.228622 2.891013 1.003420 -0.323320 0.294090 -0.046480 16.197996 19.770332 14.148889 -3.188033 -13.566572 -0.480151 -6.070181 3.716440 0.576083 2.649103 -0.694157 -0.279440 0.164190 -0.112200 -0.480540 
-2.681810 17.269760 -0.929220 12.027587 -13.248588 -3.167385 -15.611382 9.009658 7.793788 54.612501 -0.280089 -8.328676 -96.385159 21.613818 1.307872 1.786542 11.019376 0.793918 0.458520 0.035610 0.742570 18.349689 -8.571153 2.439741 -27.017078 -1.346685 -7.671626 8.273747 -4.146863 -3.754242 -0.720620 -4.133652 2.908017 -0.079960 -0.207720 0.010430 -3.515483 -0.155348 -10.405075 -17.985980 1.180158 18.577674 -1.478448 -1.982394 -13.356398 4.022007 -5.421800 -21.904202 -28.117100 27.754672 53.421170 5.771350 20.240510 -10.628100 -20.259467 -17.435603 7.312586 -22.018202 -6.125098 -0.277203 -12.371575 -33.995164 3.429924 -3.218894 2.955238 0.969280 -0.314240 0.297800 -0.040060 17.006130 19.764898 14.070116 -3.751081 -13.839811 -0.322226 -5.977437 3.869392 0.560672 2.652299 -0.721662 -0.252640 0.153190 -0.120980 -0.457150 
